<svg width="927" height="927" viewBox="0 0 927 927" fill="none" xmlns="http://www.w3.org/2000/svg">
<path d="M110.751 555V372.676H160.249V515.117H233.962V555H110.751ZM423.497 463.838C423.497 484.136 419.55 501.258 411.656 515.206C403.763 529.094 393.109 539.628 379.696 546.81C366.283 553.932 351.327 557.493 334.828 557.493C318.21 557.493 303.194 553.902 289.781 546.721C276.427 539.48 265.803 528.916 257.91 515.028C250.076 501.08 246.159 484.017 246.159 463.838C246.159 443.54 250.076 426.448 257.91 412.56C265.803 398.612 276.427 388.078 289.781 380.956C303.194 373.774 318.21 370.184 334.828 370.184C351.327 370.184 366.283 373.774 379.696 380.956C393.109 388.078 403.763 398.612 411.656 412.56C419.55 426.448 423.497 443.54 423.497 463.838ZM372.574 463.838C372.574 452.918 371.12 443.719 368.212 436.24C365.363 428.703 361.12 423.005 355.481 419.148C349.903 415.23 343.018 413.272 334.828 413.272C326.637 413.272 319.723 415.23 314.085 419.148C308.506 423.005 304.262 428.703 301.354 436.24C298.505 443.719 297.081 452.918 297.081 463.838C297.081 474.759 298.505 483.988 301.354 491.525C304.262 499.003 308.506 504.701 314.085 508.618C319.723 512.476 326.637 514.405 334.828 514.405C343.018 514.405 349.903 512.476 355.481 508.618C361.12 504.701 365.363 499.003 368.212 491.525C371.12 483.988 372.574 474.759 372.574 463.838ZM564.802 432.857C564.03 429.712 562.814 426.952 561.152 424.578C559.49 422.145 557.413 420.097 554.92 418.435C552.487 416.714 549.638 415.438 546.374 414.607C543.169 413.717 539.637 413.272 535.78 413.272C527.471 413.272 520.378 415.26 514.503 419.237C508.686 423.213 504.235 428.94 501.149 436.418C498.122 443.897 496.609 452.918 496.609 463.482C496.609 474.165 498.063 483.305 500.971 490.902C503.879 498.499 508.212 504.315 513.969 508.351C519.726 512.387 526.877 514.405 535.424 514.405C542.961 514.405 549.223 513.307 554.208 511.111C559.253 508.915 563.021 505.799 565.514 501.763C568.007 497.727 569.253 492.979 569.253 487.519L577.8 488.409H536.136V453.155H616.971V478.438C616.971 495.056 613.439 509.271 606.377 521.081C599.373 532.833 589.699 541.854 577.354 548.145C565.069 554.377 550.973 557.493 535.068 557.493C517.322 557.493 501.742 553.724 488.329 546.187C474.916 538.649 464.441 527.907 456.903 513.959C449.425 500.012 445.686 483.424 445.686 464.194C445.686 449.119 447.971 435.766 452.541 424.133C457.17 412.5 463.58 402.678 471.771 394.666C479.961 386.594 489.427 380.511 500.17 376.416C510.912 372.261 522.426 370.184 534.711 370.184C545.513 370.184 555.543 371.727 564.802 374.813C574.12 377.84 582.34 382.172 589.462 387.811C596.643 393.39 602.43 400.007 606.822 407.663C611.214 415.32 613.884 423.718 614.834 432.857H564.802ZM816.676 463.838C816.676 484.136 812.73 501.258 804.836 515.206C796.942 529.094 786.289 539.628 772.876 546.81C759.463 553.932 744.507 557.493 728.007 557.493C711.389 557.493 696.374 553.902 682.961 546.721C669.607 539.48 658.983 528.916 651.09 515.028C643.255 501.08 639.338 484.017 639.338 463.838C639.338 443.54 643.255 426.448 651.09 412.56C658.983 398.612 669.607 388.078 682.961 380.956C696.374 373.774 711.389 370.184 728.007 370.184C744.507 370.184 759.463 373.774 772.876 380.956C786.289 388.078 796.942 398.612 804.836 412.56C812.73 426.448 816.676 443.54 816.676 463.838ZM765.754 463.838C765.754 452.918 764.3 443.719 761.392 436.24C758.543 428.703 754.299 423.005 748.661 419.148C743.082 415.23 736.198 413.272 728.007 413.272C719.817 413.272 712.903 415.23 707.264 419.148C701.685 423.005 697.442 428.703 694.534 436.24C691.685 443.719 690.261 452.918 690.261 463.838C690.261 474.759 691.685 483.988 694.534 491.525C697.442 499.003 701.685 504.701 707.264 508.618C712.903 512.476 719.817 514.405 728.007 514.405C736.198 514.405 743.082 512.476 748.661 508.618C754.299 504.701 758.543 499.003 761.392 491.525C764.3 483.988 765.754 474.759 765.754 463.838Z" fill="#00DE34"/>
</svg>
