<svg width="200" height="54" viewBox="0 0 200 54" fill="none" xmlns="http://www.w3.org/2000/svg">
<path d="M0.000161202 52.8439V0.712712H12.6002V42.6111H34.2876V52.8439H0.000161202ZM87.9842 26.7783C87.9842 32.5141 86.8812 37.3759 84.6751 41.3638C82.469 45.3517 79.4824 48.3808 75.7151 50.4511C71.9647 52.5214 67.7562 53.5566 63.0896 53.5566C58.4059 53.5566 54.1889 52.513 50.4386 50.4257C46.6883 48.3384 43.7101 45.3093 41.504 41.3384C39.3149 37.3505 38.2203 32.4971 38.2203 26.7783C38.2203 21.0425 39.3149 16.1807 41.504 12.1928C43.7101 8.20487 46.6883 5.17576 50.4386 3.10545C54.1889 1.03514 58.4059 -1.95633e-05 63.0896 -1.95633e-05C67.7562 -1.95633e-05 71.9647 1.03514 75.7151 3.10545C79.4824 5.17576 82.469 8.20487 84.6751 12.1928C86.8812 16.1807 87.9842 21.0425 87.9842 26.7783ZM75.1042 26.7783C75.1042 23.3843 74.6205 20.5164 73.6532 18.1746C72.7029 15.8328 71.3284 14.0594 69.5296 12.8546C67.7478 11.6497 65.6011 11.0473 63.0896 11.0473C60.595 11.0473 58.4483 11.6497 56.6495 12.8546C54.8507 14.0594 53.4677 15.8328 52.5004 18.1746C51.5501 20.5164 51.075 23.3843 51.075 26.7783C51.075 30.1722 51.5501 33.0401 52.5004 35.382C53.4677 37.7238 54.8507 39.4971 56.6495 40.702C58.4483 41.9068 60.595 42.5093 63.0896 42.5093C65.6011 42.5093 67.7478 41.9068 69.5296 40.702C71.3284 39.4971 72.7029 37.7238 73.6532 35.382C74.6205 33.0401 75.1042 30.1722 75.1042 26.7783ZM129.552 17.7419C129.263 16.6728 128.839 15.731 128.279 14.9164C127.719 14.0849 127.032 13.3807 126.217 12.8037C125.403 12.2267 124.469 11.794 123.417 11.5055C122.365 11.2 121.211 11.0473 119.955 11.0473C117.427 11.0473 115.238 11.6582 113.388 12.88C111.555 14.1019 110.138 15.8837 109.137 18.2255C108.136 20.5504 107.635 23.3759 107.635 26.7019C107.635 30.045 108.119 32.8959 109.086 35.2547C110.053 37.6135 111.453 39.4123 113.286 40.6511C115.119 41.8899 117.342 42.5093 119.955 42.5093C122.263 42.5093 124.215 42.1359 125.81 41.3893C127.422 40.6256 128.644 39.5481 129.475 38.1565C130.307 36.765 130.723 35.1274 130.723 33.2438L133.064 33.5238H120.388V24.3346H142.864V31.2329C142.864 35.8995 141.872 39.8959 139.886 43.222C137.918 46.5481 135.203 49.102 131.741 50.8839C128.296 52.6657 124.333 53.5566 119.853 53.5566C114.881 53.5566 110.512 52.479 106.744 50.3239C102.977 48.1687 100.041 45.0972 97.937 41.1093C95.8327 37.1044 94.7806 32.3529 94.7806 26.8547C94.7806 22.5783 95.417 18.7855 96.6897 15.4764C97.9624 12.1503 99.7358 9.33336 102.01 7.02547C104.301 4.71758 106.948 2.96969 109.952 1.78181C112.972 0.593922 116.222 -1.95633e-05 119.701 -1.95633e-05C122.721 -1.95633e-05 125.53 0.43271 128.126 1.29817C130.74 2.16363 133.047 3.38545 135.05 4.96364C137.069 6.54183 138.707 8.41699 139.963 10.5891C141.218 12.7613 141.999 15.1455 142.304 17.7419H129.552ZM199.495 26.7783C199.495 32.5141 198.392 37.3759 196.186 41.3638C193.98 45.3517 190.993 48.3808 187.226 50.4511C183.475 52.5214 179.267 53.5566 174.6 53.5566C169.916 53.5566 165.699 52.513 161.949 50.4257C158.199 48.3384 155.221 45.3093 153.015 41.3384C150.825 37.3505 149.731 32.4971 149.731 26.7783C149.731 21.0425 150.825 16.1807 153.015 12.1928C155.221 8.20487 158.199 5.17576 161.949 3.10545C165.699 1.03514 169.916 -1.95633e-05 174.6 -1.95633e-05C179.267 -1.95633e-05 183.475 1.03514 187.226 3.10545C190.993 5.17576 193.98 8.20487 196.186 12.1928C198.392 16.1807 199.495 21.0425 199.495 26.7783ZM186.615 26.7783C186.615 23.3843 186.131 20.5164 185.164 18.1746C184.213 15.8328 182.839 14.0594 181.04 12.8546C179.258 11.6497 177.112 11.0473 174.6 11.0473C172.106 11.0473 169.959 11.6497 168.16 12.8546C166.361 14.0594 164.978 15.8328 164.011 18.1746C163.061 20.5164 162.585 23.3843 162.585 26.7783C162.585 30.1722 163.061 33.0401 164.011 35.382C164.978 37.7238 166.361 39.4971 168.16 40.702C169.959 41.9068 172.106 42.5093 174.6 42.5093C177.112 42.5093 179.258 41.9068 181.04 40.702C182.839 39.4971 184.213 37.7238 185.164 35.382C186.131 33.0401 186.615 30.1722 186.615 26.7783Z" fill="#03C200"/>
</svg>
